<svg width="50" height="49" viewBox="0 0 43 42" fill="none" xmlns="http://www.w3.org/2000/svg">
<path d="M16.9689 30.0981C18.6066 28.7334 19.6487 26.6739 19.6487 24.3828C19.6487 20.2721 16.3072 16.9307 12.1966 16.9307C8.08587 16.9307 4.74439 20.2721 4.74439 24.3828C4.74439 26.6739 5.78654 28.7334 7.42419 30.0981C3.33832 31.835 -0.15204 35.8464 0.00510887 42.0001H24.388C24.388 42.0001 25.0662 33.6629 16.9689 30.0981ZM6.10083 24.3828C6.10083 21.0248 8.83853 18.2871 12.1966 18.2871C15.5546 18.2871 18.2923 21.0248 18.2923 24.3828C18.2923 27.7409 15.5546 30.4786 12.1966 30.4786C8.83853 30.4786 6.10083 27.7491 6.10083 24.3828ZM1.37809 40.6436C1.65104 36.2186 4.5707 32.414 8.82199 31.0244C9.83932 31.5455 10.9807 31.8433 12.1966 31.8433C13.4124 31.8433 14.5621 31.5455 15.5711 31.0244C19.8224 32.414 22.7421 36.2269 23.015 40.6436H1.37809Z" fill="black"/>
<path d="M35.074 28.7499C36.5876 27.4596 37.5553 25.5407 37.5553 23.4068C37.5553 19.5277 34.404 16.3765 30.5249 16.3765C26.6458 16.3765 23.4946 19.5277 23.4946 23.4068C23.4946 25.549 24.4623 27.4679 25.9759 28.7582C24.2721 29.4943 22.7667 30.6274 21.584 32.0914L22.6344 32.9433C23.8668 31.4131 25.4962 30.2883 27.3489 29.6762C28.3 30.156 29.3753 30.4372 30.5167 30.4372C31.6581 30.4372 32.7333 30.156 33.6844 29.6762C37.6297 30.9748 40.3426 34.5148 40.6155 38.6089H25.0661V39.9654H41.9968C42.1788 37.0457 41.0787 31.4545 35.074 28.7499ZM24.8428 23.4068C24.8428 20.2804 27.3902 17.7329 30.5167 17.7329C33.6431 17.7329 36.1906 20.2804 36.1906 23.4068C36.1906 26.5333 33.6431 29.0807 30.5167 29.0807C27.3902 29.0807 24.8428 26.5333 24.8428 23.4068Z" fill="black"/>
<path d="M6.10113 12.1914H6.44024L8.81402 15.351L11.1878 12.1914H15.1579C16.3654 14.284 18.5655 15.5743 21.0055 15.5743C22.0228 15.5743 23.0319 15.3427 23.9499 14.9043L27.2004 15.7893L27.1922 11.5463C27.5809 10.6779 27.7794 9.7515 27.7794 8.80861C27.7794 5.21073 24.959 2.26625 21.4107 2.05948C20.8814 0.851913 19.6821 0 18.2926 0H6.10113C4.23189 0 2.7183 1.52186 2.7183 3.38284V8.80034C2.71002 10.6779 4.23189 12.1914 6.10113 12.1914ZM21.6754 8.80861V3.44073C24.347 3.77985 26.4147 6.05437 26.4147 8.80861C26.4147 10.1485 25.8275 11.2486 25.8275 11.2486V14.0193L23.7763 13.4652C23.7763 13.4652 22.5273 14.2261 20.9889 14.2261C19.3182 14.2261 17.7881 13.4652 16.7707 12.1914H18.276C20.1536 12.1914 21.6754 10.6779 21.6754 8.80861ZM4.06647 3.39111C4.06647 2.27452 4.97628 1.35644 6.10113 1.35644H18.2926C19.4092 1.35644 20.3272 2.26625 20.3272 3.39111V8.80861C20.3272 9.9252 19.4174 10.8433 18.2926 10.8433H10.5013L8.80575 13.1013L7.11019 10.8433H6.10113C4.98455 10.8433 4.06647 9.93347 4.06647 8.80861V3.39111Z" fill="black"/>
<path d="M18.2925 3.39111H6.10107V4.74756H18.2925V3.39111Z" fill="black"/>
<path d="M12.875 7.45215H11.5186V8.80859H12.875V7.45215Z" fill="black"/>
<path d="M15.5796 7.45215H14.2231V8.80859H15.5796V7.45215Z" fill="black"/>
<path d="M10.1621 7.45215H8.80566V8.80859H10.1621V7.45215Z" fill="black"/>
</svg>
