<svg width="50" height="50" viewBox="0 0 39 39" fill="none" xmlns="http://www.w3.org/2000/svg">
<path d="M27.9499 22.1C30.1354 22.1 32.2718 21.4519 34.0889 20.2377C35.9061 19.0235 37.3224 17.2978 38.1588 15.2787C38.9951 13.2595 39.2139 11.0377 38.7876 8.89425C38.3612 6.75076 37.3088 4.78184 35.7634 3.23647C34.2181 1.6911 32.2491 0.638694 30.1056 0.212328C27.9622 -0.214039 25.7404 0.00478778 23.7212 0.841136C21.7021 1.67748 19.9764 3.09379 18.7622 4.91095C17.548 6.72812 16.8999 8.86452 16.8999 11.05C16.9032 13.9796 18.0684 16.7884 20.14 18.8599C22.2115 20.9315 25.0203 22.0967 27.9499 22.1ZM27.9499 1.3C29.8783 1.3 31.7633 1.87183 33.3667 2.94318C34.9701 4.01452 36.2198 5.53726 36.9577 7.31884C37.6957 9.10042 37.8888 11.0608 37.5126 12.9521C37.1363 14.8434 36.2078 16.5807 34.8442 17.9443C33.4806 19.3079 31.7433 20.2365 29.852 20.6127C27.9607 20.9889 26.0003 20.7958 24.2187 20.0578C22.4372 19.3199 20.9144 18.0702 19.8431 16.4668C18.7717 14.8634 18.1999 12.9784 18.1999 11.05C18.2028 8.46504 19.231 5.98679 21.0588 4.15894C22.8867 2.3311 25.3649 1.30293 27.9499 1.3Z" fill="black"/>
<path d="M27.95 19.5001C29.6213 19.5001 31.255 19.0045 32.6446 18.076C34.0342 17.1475 35.1172 15.8278 35.7568 14.2838C36.3963 12.7397 36.5637 11.0407 36.2376 9.40159C35.9116 7.76245 35.1068 6.2568 33.925 5.07505C32.7433 3.89329 31.2377 3.08851 29.5985 2.76247C27.9594 2.43642 26.2604 2.60376 24.7163 3.24332C23.1723 3.88288 21.8526 4.96594 20.9241 6.35553C19.9956 7.74513 19.5 9.37885 19.5 11.0501C19.5026 13.2904 20.3937 15.4382 21.9778 17.0223C23.5619 18.6064 25.7097 19.4975 27.95 19.5001ZM27.95 3.9001C29.3641 3.9001 30.7465 4.31944 31.9223 5.10509C33.0981 5.89075 34.0146 7.00742 34.5557 8.31391C35.0969 9.62041 35.2385 11.058 34.9626 12.445C34.6867 13.832 34.0058 15.106 33.0058 16.1059C32.0059 17.1059 30.7319 17.7868 29.3449 18.0627C27.9579 18.3386 26.5203 18.197 25.2138 17.6558C23.9073 17.1147 22.7906 16.1982 22.005 15.0224C21.2193 13.8466 20.8 12.4642 20.8 11.0501C20.8022 9.15449 21.5563 7.33716 22.8967 5.99676C24.2371 4.65636 26.0544 3.90234 27.95 3.9001Z" fill="black"/>
<path d="M23.6892 14.1456L27.5892 16.7456C27.696 16.8169 27.8215 16.8549 27.9499 16.8549C28.0783 16.8549 28.2038 16.8169 28.3107 16.7456L32.2106 14.1456C32.2996 14.0862 32.3726 14.0058 32.4231 13.9114C32.4735 13.8171 32.4999 13.7118 32.4999 13.6048V8.45029C32.4999 8.34331 32.4735 8.23797 32.4231 8.14363C32.3726 8.04929 32.2996 7.96887 32.2106 7.90949L28.3107 5.30949C28.2038 5.23823 28.0783 5.2002 27.9499 5.2002C27.8215 5.2002 27.696 5.23823 27.5892 5.30949L23.6892 7.90949C23.6002 7.96887 23.5272 8.04929 23.4767 8.14363C23.4263 8.23797 23.3999 8.34331 23.3999 8.45029V13.6048C23.3999 13.7118 23.4263 13.8171 23.4767 13.9114C23.5272 14.0058 23.6002 14.0862 23.6892 14.1456ZM24.6999 8.79804L27.9499 6.63029L31.1999 8.79674V13.2603L27.9499 15.4267L24.6999 13.2603V8.79804Z" fill="black"/>
<path d="M11.05 16.8999C8.86452 16.8999 6.72812 17.548 4.91095 18.7622C3.09379 19.9764 1.67748 21.7021 0.841136 23.7212C0.00478778 25.7404 -0.214039 27.9622 0.212328 30.1056C0.638694 32.2491 1.6911 34.2181 3.23647 35.7634C4.78184 37.3088 6.75076 38.3612 8.89425 38.7876C11.0377 39.2139 13.2595 38.9951 15.2787 38.1588C17.2978 37.3224 19.0235 35.9061 20.2377 34.0889C21.4519 32.2718 22.1 30.1354 22.1 27.9499C22.0967 25.0203 20.9315 22.2115 18.8599 20.14C16.7884 18.0684 13.9796 16.9032 11.05 16.8999ZM11.05 37.6999C9.12163 37.6999 7.23657 37.1281 5.63319 36.0567C4.02981 34.9854 2.78013 33.4626 2.04218 31.6811C1.30422 29.8995 1.11114 27.9391 1.48735 26.0478C1.86355 24.1565 2.79215 22.4192 4.15571 21.0556C5.51927 19.692 7.25656 18.7635 9.14787 18.3872C11.0392 18.011 12.9996 18.2041 14.7812 18.9421C16.5627 19.68 18.0855 20.9297 19.1568 22.5331C20.2282 24.1365 20.8 26.0215 20.8 27.9499C20.7971 30.5349 19.7689 33.0131 17.9411 34.841C16.1132 36.6688 13.635 37.697 11.05 37.6999Z" fill="black"/>
<path d="M11.0501 19.5C9.37885 19.5 7.74513 19.9956 6.35553 20.9241C4.96594 21.8526 3.88288 23.1723 3.24332 24.7163C2.60376 26.2604 2.43642 27.9594 2.76247 29.5985C3.08851 31.2377 3.89329 32.7433 5.07505 33.925C6.2568 35.1068 7.76245 35.9116 9.40159 36.2376C11.0407 36.5637 12.7397 36.3963 14.2838 35.7568C15.8278 35.1172 17.1475 34.0342 18.076 32.6446C19.0045 31.255 19.5001 29.6213 19.5001 27.95C19.4975 25.7097 18.6064 23.5619 17.0223 21.9778C15.4382 20.3937 13.2904 19.5026 11.0501 19.5ZM11.0501 35.1C9.63596 35.1 8.25358 34.6807 7.07777 33.895C5.90196 33.1094 4.98553 31.9927 4.44436 30.6862C3.9032 29.3797 3.7616 27.9421 4.03749 26.5551C4.31337 25.1681 4.99434 23.8941 5.99429 22.8942C6.99423 21.8942 8.26824 21.2133 9.6552 20.9374C11.0422 20.6615 12.4798 20.8031 13.7863 21.3443C15.0928 21.8854 16.2095 22.8019 16.9951 23.9777C17.7808 25.1535 18.2001 26.5359 18.2001 27.95C18.1979 29.8456 17.4438 31.6629 16.1034 33.0033C14.763 34.3437 12.9457 35.0978 11.0501 35.1Z" fill="black"/>
<path d="M7.55813 28.5538L10.8081 29.8538C10.9635 29.9153 11.1364 29.9153 11.2917 29.8538L14.5417 28.5538C14.6272 28.5194 14.7045 28.4671 14.7682 28.4005C14.832 28.3339 14.8809 28.2545 14.9116 28.1676C14.9424 28.0807 14.9543 27.9882 14.9465 27.8963C14.9388 27.8044 14.9116 27.7153 14.8667 27.6347L11.6167 21.7847C11.5555 21.6897 11.4714 21.6116 11.3721 21.5575C11.2729 21.5034 11.1617 21.4751 11.0486 21.4751C10.9356 21.4751 10.8244 21.5034 10.7251 21.5575C10.6259 21.6116 10.5418 21.6897 10.4805 21.7847L7.23053 27.6347C7.18568 27.7153 7.15848 27.8044 7.15073 27.8963C7.14299 27.9882 7.15488 28.0807 7.18562 28.1676C7.21636 28.2545 7.26524 28.3339 7.32902 28.4005C7.39279 28.4671 7.47001 28.5194 7.55553 28.5538H7.55813ZM11.0499 23.439L13.3737 27.6204L11.0499 28.5499L8.72618 27.6204L11.0499 23.439Z" fill="black"/>
<path d="M14.0582 29.2961L11.05 30.4999L8.0418 29.2961C7.90736 29.2419 7.75866 29.2343 7.61936 29.2743C7.48005 29.3144 7.35812 29.3998 7.27296 29.5171C7.18779 29.6344 7.14427 29.7768 7.14932 29.9216C7.15437 30.0665 7.20769 30.2055 7.3008 30.3166L10.5508 34.2166C10.6118 34.2898 10.6881 34.3486 10.7744 34.389C10.8607 34.4294 10.9548 34.4503 11.05 34.4503C11.1453 34.4503 11.2393 34.4294 11.3256 34.389C11.4119 34.3486 11.4882 34.2898 11.5492 34.2166L14.7992 30.3166C14.8923 30.2055 14.9456 30.0665 14.9507 29.9216C14.9557 29.7768 14.9122 29.6344 14.827 29.5171C14.7419 29.3998 14.62 29.3144 14.4807 29.2743C14.3413 29.2343 14.1927 29.2419 14.0582 29.2961ZM11.05 32.7847L9.945 31.46L10.8089 31.8064C10.9641 31.8681 11.1372 31.8681 11.2925 31.8064L12.155 31.46L11.05 32.7847Z" fill="black"/>
<path d="M33.9902 23.5902L32.0402 25.5402L32.9593 26.4593L33.7998 25.6189V33.7998H25.6189L26.4593 32.9593L25.5402 32.0402L23.5902 33.9902C23.4684 34.1121 23.3999 34.2774 23.3999 34.4498C23.3999 34.6221 23.4684 34.7874 23.5902 34.9093L25.5402 36.8593L26.4593 35.9402L25.6189 35.0998H34.4498C34.6222 35.0998 34.7875 35.0313 34.9094 34.9094C35.0313 34.7875 35.0998 34.6222 35.0998 34.4498V25.6189L35.9402 26.4593L36.8593 25.5402L34.9093 23.5902C34.7874 23.4684 34.6221 23.3999 34.4498 23.3999C34.2774 23.3999 34.1121 23.4684 33.9902 23.5902Z" fill="black"/>
<path d="M4.55017 15.5997C4.72255 15.5996 4.88785 15.5311 5.00972 15.4092L6.95972 13.4592L6.04062 12.5401L5.20017 13.3806V5.19969H13.3811L12.5406 6.04014L13.4597 6.95924L15.4097 5.00924C15.5316 4.88734 15.6 4.72204 15.6 4.54969C15.6 4.37733 15.5316 4.21203 15.4097 4.09014L13.4597 2.14014L12.5406 3.05924L13.3811 3.89969H4.55017C4.37778 3.89969 4.21245 3.96817 4.09055 4.09007C3.96866 4.21197 3.90017 4.3773 3.90017 4.54969V13.3806L3.05972 12.5401L2.14062 13.4592L4.09062 15.4092C4.21249 15.5311 4.3778 15.5996 4.55017 15.5997Z" fill="black"/>
</svg>
