<svg width="50" height="49" viewBox="0 0 40 39" fill="none" xmlns="http://www.w3.org/2000/svg">
<mask id="path-1-inside-1_233_14" fill="white">
<path d="M19.9127 0C17.2742 0 15.1283 2.14596 15.1283 4.78444C15.1298 7.4394 17.2749 9.56862 19.9127 9.56862C22.5677 9.56862 24.7194 7.4394 24.7194 4.78444C24.7194 2.14596 22.5677 0 19.9127 0ZM5.62312 1.89378C2.98464 1.89378 0.838683 4.03948 0.838683 6.67798C0.840011 9.33292 2.98535 11.4624 5.62312 11.4624C8.27808 11.4624 10.4298 9.33292 10.4298 6.67798C10.4298 4.03948 8.27808 1.89378 5.62312 1.89378ZM34.2021 1.89378C31.5636 1.89378 29.4176 4.03948 29.4176 6.67798C29.4192 9.33292 31.5643 11.4624 34.2021 11.4624C36.857 11.4624 39.0087 9.33292 39.0087 6.67798C39.0087 4.03948 36.857 1.89378 34.2021 1.89378ZM19.9237 10.9996C16.8022 10.9996 14.2893 13.8961 14.2893 17.4941V20.6874C16.0834 20.5197 17.971 20.4285 19.924 20.4285C21.8768 20.4285 23.7641 20.5197 25.5581 20.6874V17.4941C25.5581 13.8961 23.0452 10.9996 19.9237 10.9996ZM5.63412 12.8931C2.51264 12.8931 0 15.7899 0 19.3879V25.2617C0.178588 25.0859 0.372651 24.916 0.580279 24.7524C1.70985 23.8622 3.27384 23.1047 5.18079 22.469C6.94236 21.8818 9.00084 21.4037 11.2685 21.057V19.3879C11.2685 15.7899 8.7556 12.8931 5.63412 12.8931ZM34.2133 12.8931C31.0918 12.8931 28.5789 15.7899 28.5789 19.3879V21.057C30.8466 21.4037 32.9053 21.8818 34.6669 22.469C36.5738 23.1047 38.1381 23.8622 39.2676 24.7524C39.4753 24.916 39.6691 25.0859 39.8477 25.2617V19.3879C39.8477 15.7899 37.3348 12.8931 34.2133 12.8931ZM19.924 21.708C14.3031 21.708 9.21407 22.4735 5.58539 23.683C3.77104 24.2878 2.32381 25.0073 1.37223 25.7572C0.420641 26.5072 0 27.2359 0 27.9229C0 28.61 0.420641 29.3387 1.37223 30.0886C2.32381 30.8385 3.77104 31.5581 5.58539 32.1629C9.21407 33.3724 14.3031 34.1378 19.924 34.1378C25.5448 34.1378 30.6336 33.3724 34.2623 32.1629C36.0766 31.5581 37.5239 30.8385 38.4754 30.0886C39.427 29.3387 39.8477 28.61 39.8477 27.9229C39.8477 27.2359 39.427 26.5072 38.4754 25.7572C37.5239 25.0073 36.0766 24.2878 34.2623 23.683C30.6336 22.4735 25.5448 21.708 19.924 21.708ZM13.1803 23.4126H26.6672L31.6075 30.6619L31.7685 30.8978H8.07894L13.1803 23.4126ZM15.5689 23.5703L15.3502 24.0751H16.5717H16.7602H17.2435H17.2842H18.0497L18.1394 23.5701H17.8707H17.3717H16.9116L15.5689 23.5703ZM18.6384 23.5703L18.574 24.0754H18.6944H19.2187H20.6287H21.1532H21.2735L21.209 23.5703H21.094H20.595H20.1734H19.6741H19.2522H18.7532H18.6384ZM21.708 23.5703L21.7978 24.0754H22.5632H23.0875H24.4975L24.2786 23.5703H22.9361H21.9764H21.708ZM13.139 24.2551L12.8134 24.7704L12.6944 24.9586L12.5607 25.17L12.487 25.2869H14.2401L14.3911 24.9748L14.3988 24.9584L14.4898 24.7703L14.7389 24.2549L13.139 24.2551ZM15.2715 24.2551L13.3055 28.7931H26.5412L24.5752 24.2551H15.2715ZM25.1082 24.2551L25.3572 24.7704L25.4481 24.9586L25.5501 25.17L25.6066 25.2869H27.3596L27.2857 25.17L27.1522 24.9586L26.7076 24.2551H25.1082ZM19.9235 24.8386L23.4901 26.1281L19.9235 27.7493L16.3566 26.1281L19.9235 24.8386ZM12.3456 25.5106L12.3121 25.5633L12.1639 25.798L12.0342 26.0034L11.8748 26.2556L11.7351 26.4767L11.5631 26.7486L11.5226 26.8126H13.5029L13.5339 26.7486L13.6653 26.4767L13.772 26.2556L13.9932 25.798L14.1067 25.5633L14.1322 25.5106H12.3456ZM25.7145 25.5106L25.74 25.5633L25.8532 25.798L25.9524 26.0034L26.0741 26.2556L26.1808 26.4767L26.3123 26.7486L26.3433 26.8126H28.3235L28.1114 26.4767L27.9717 26.2556L27.8122 26.0034L27.5343 25.5633L27.5008 25.5106H25.7145ZM11.342 27.099L11.2412 27.2579L11.0481 27.5641L10.8619 27.8587L10.2714 28.7931H12.5468L12.9981 27.8587L13.1403 27.5641L13.152 27.5397L13.3647 27.0989L11.342 27.099ZM26.4815 27.099L26.5582 27.2579L26.7061 27.5641L26.8483 27.8587L27.2997 28.7931H29.5751L28.9845 27.8587L28.7984 27.5641L28.6049 27.2579L28.5045 27.099H26.4815ZM13.1408 29.1722L12.595 30.4317H14.8544H15.6941H16.9203L17.144 29.1722H17.9215L17.7603 30.4317H17.9532H18.7931H21.0525H21.8922H22.0854L21.9245 29.1722H22.7017L22.9253 30.4317H24.1516H24.9915H27.2509L26.7051 29.172H23.1198H20.9686H20.3118H18.1001H16.7262L13.1408 29.1722ZM0 30.5841V32.7851C0 33.4722 0.420641 34.2008 1.37223 34.9508C2.32381 35.7007 3.77104 36.4202 5.58539 37.025C9.21407 38.2346 14.3031 39 19.924 39C25.5448 39 30.6336 38.2346 34.2623 37.025C36.0766 36.4202 37.5239 35.7007 38.4754 34.9508C39.427 34.2008 39.8477 33.4722 39.8477 32.7851V30.5841C39.6691 30.7599 39.4753 30.9299 39.2676 31.0935C38.1381 31.9837 36.5738 32.7412 34.6669 33.3769C30.853 34.6482 25.6601 35.4173 19.924 35.4173C14.1878 35.4173 8.99469 34.6482 5.18079 33.3769C3.27384 32.7412 1.70985 31.9837 0.580279 31.0935C0.372651 30.9299 0.178588 30.7599 0 30.5841Z"/>
</mask>
<path d="M19.9127 0C17.2742 0 15.1283 2.14596 15.1283 4.78444C15.1298 7.4394 17.2749 9.56862 19.9127 9.56862C22.5677 9.56862 24.7194 7.4394 24.7194 4.78444C24.7194 2.14596 22.5677 0 19.9127 0ZM5.62312 1.89378C2.98464 1.89378 0.838683 4.03948 0.838683 6.67798C0.840011 9.33292 2.98535 11.4624 5.62312 11.4624C8.27808 11.4624 10.4298 9.33292 10.4298 6.67798C10.4298 4.03948 8.27808 1.89378 5.62312 1.89378ZM34.2021 1.89378C31.5636 1.89378 29.4176 4.03948 29.4176 6.67798C29.4192 9.33292 31.5643 11.4624 34.2021 11.4624C36.857 11.4624 39.0087 9.33292 39.0087 6.67798C39.0087 4.03948 36.857 1.89378 34.2021 1.89378ZM19.9237 10.9996C16.8022 10.9996 14.2893 13.8961 14.2893 17.4941V20.6874C16.0834 20.5197 17.971 20.4285 19.924 20.4285C21.8768 20.4285 23.7641 20.5197 25.5581 20.6874V17.4941C25.5581 13.8961 23.0452 10.9996 19.9237 10.9996ZM5.63412 12.8931C2.51264 12.8931 0 15.7899 0 19.3879V25.2617C0.178588 25.0859 0.372651 24.916 0.580279 24.7524C1.70985 23.8622 3.27384 23.1047 5.18079 22.469C6.94236 21.8818 9.00084 21.4037 11.2685 21.057V19.3879C11.2685 15.7899 8.7556 12.8931 5.63412 12.8931ZM34.2133 12.8931C31.0918 12.8931 28.5789 15.7899 28.5789 19.3879V21.057C30.8466 21.4037 32.9053 21.8818 34.6669 22.469C36.5738 23.1047 38.1381 23.8622 39.2676 24.7524C39.4753 24.916 39.6691 25.0859 39.8477 25.2617V19.3879C39.8477 15.7899 37.3348 12.8931 34.2133 12.8931ZM19.924 21.708C14.3031 21.708 9.21407 22.4735 5.58539 23.683C3.77104 24.2878 2.32381 25.0073 1.37223 25.7572C0.420641 26.5072 0 27.2359 0 27.9229C0 28.61 0.420641 29.3387 1.37223 30.0886C2.32381 30.8385 3.77104 31.5581 5.58539 32.1629C9.21407 33.3724 14.3031 34.1378 19.924 34.1378C25.5448 34.1378 30.6336 33.3724 34.2623 32.1629C36.0766 31.5581 37.5239 30.8385 38.4754 30.0886C39.427 29.3387 39.8477 28.61 39.8477 27.9229C39.8477 27.2359 39.427 26.5072 38.4754 25.7572C37.5239 25.0073 36.0766 24.2878 34.2623 23.683C30.6336 22.4735 25.5448 21.708 19.924 21.708ZM13.1803 23.4126H26.6672L31.6075 30.6619L31.7685 30.8978H8.07894L13.1803 23.4126ZM15.5689 23.5703L15.3502 24.0751H16.5717H16.7602H17.2435H17.2842H18.0497L18.1394 23.5701H17.8707H17.3717H16.9116L15.5689 23.5703ZM18.6384 23.5703L18.574 24.0754H18.6944H19.2187H20.6287H21.1532H21.2735L21.209 23.5703H21.094H20.595H20.1734H19.6741H19.2522H18.7532H18.6384ZM21.708 23.5703L21.7978 24.0754H22.5632H23.0875H24.4975L24.2786 23.5703H22.9361H21.9764H21.708ZM13.139 24.2551L12.8134 24.7704L12.6944 24.9586L12.5607 25.17L12.487 25.2869H14.2401L14.3911 24.9748L14.3988 24.9584L14.4898 24.7703L14.7389 24.2549L13.139 24.2551ZM15.2715 24.2551L13.3055 28.7931H26.5412L24.5752 24.2551H15.2715ZM25.1082 24.2551L25.3572 24.7704L25.4481 24.9586L25.5501 25.17L25.6066 25.2869H27.3596L27.2857 25.17L27.1522 24.9586L26.7076 24.2551H25.1082ZM19.9235 24.8386L23.4901 26.1281L19.9235 27.7493L16.3566 26.1281L19.9235 24.8386ZM12.3456 25.5106L12.3121 25.5633L12.1639 25.798L12.0342 26.0034L11.8748 26.2556L11.7351 26.4767L11.5631 26.7486L11.5226 26.8126H13.5029L13.5339 26.7486L13.6653 26.4767L13.772 26.2556L13.9932 25.798L14.1067 25.5633L14.1322 25.5106H12.3456ZM25.7145 25.5106L25.74 25.5633L25.8532 25.798L25.9524 26.0034L26.0741 26.2556L26.1808 26.4767L26.3123 26.7486L26.3433 26.8126H28.3235L28.1114 26.4767L27.9717 26.2556L27.8122 26.0034L27.5343 25.5633L27.5008 25.5106H25.7145ZM11.342 27.099L11.2412 27.2579L11.0481 27.5641L10.8619 27.8587L10.2714 28.7931H12.5468L12.9981 27.8587L13.1403 27.5641L13.152 27.5397L13.3647 27.0989L11.342 27.099ZM26.4815 27.099L26.5582 27.2579L26.7061 27.5641L26.8483 27.8587L27.2997 28.7931H29.5751L28.9845 27.8587L28.7984 27.5641L28.6049 27.2579L28.5045 27.099H26.4815ZM13.1408 29.1722L12.595 30.4317H14.8544H15.6941H16.9203L17.144 29.1722H17.9215L17.7603 30.4317H17.9532H18.7931H21.0525H21.8922H22.0854L21.9245 29.1722H22.7017L22.9253 30.4317H24.1516H24.9915H27.2509L26.7051 29.172H23.1198H20.9686H20.3118H18.1001H16.7262L13.1408 29.1722ZM0 30.5841V32.7851C0 33.4722 0.420641 34.2008 1.37223 34.9508C2.32381 35.7007 3.77104 36.4202 5.58539 37.025C9.21407 38.2346 14.3031 39 19.924 39C25.5448 39 30.6336 38.2346 34.2623 37.025C36.0766 36.4202 37.5239 35.7007 38.4754 34.9508C39.427 34.2008 39.8477 33.4722 39.8477 32.7851V30.5841C39.6691 30.7599 39.4753 30.9299 39.2676 31.0935C38.1381 31.9837 36.5738 32.7412 34.6669 33.3769C30.853 34.6482 25.6601 35.4173 19.924 35.4173C14.1878 35.4173 8.99469 34.6482 5.18079 33.3769C3.27384 32.7412 1.70985 31.9837 0.580279 31.0935C0.372651 30.9299 0.178588 30.7599 0 30.5841Z" stroke="black" stroke-width="4" stroke-linejoin="round" mask="url(#path-1-inside-1_233_14)"/>
</svg>
