<svg width="50" height="51" viewBox="0 0 40 41" fill="none" xmlns="http://www.w3.org/2000/svg">
<path fill-rule="evenodd" clip-rule="evenodd" d="M20 37.7449C29.3888 37.7449 37 30.176 37 20.8392C37 11.5025 29.3888 3.93355 20 3.93355C10.6112 3.93355 3 11.5025 3 20.8392C3 30.176 10.6112 37.7449 20 37.7449ZM20 40.7283C31.0457 40.7283 40 31.8237 40 20.8392C40 9.85482 31.0457 0.950195 20 0.950195C8.9543 0.950195 0 9.85482 0 20.8392C0 31.8237 8.9543 40.7283 20 40.7283Z" fill="black"/>
<path fill-rule="evenodd" clip-rule="evenodd" d="M11.2473 38.7276L14.8999 27.4523C13.2999 26.0601 12.2999 23.8723 12.2999 21.5851C12.2999 20.6901 12.3999 19.8945 12.6999 19.0989C11.5493 15.5784 12.122 12.1357 12.2689 11.2529C12.288 11.1382 12.2999 11.0667 12.2999 11.0439C12.3999 10.5467 12.6999 10.2483 13.0999 10.0494C13.4999 9.85054 13.8999 9.85054 14.2999 10.0494C14.6999 10.2483 17.4999 11.6406 18.4999 13.8284C18.9999 13.7289 19.6999 13.6295 20.2999 13.6295C20.8999 13.6295 21.4999 13.7289 22.0999 13.8283C23.0999 11.6406 25.8999 10.2483 26.2999 10.0494C26.6999 9.85054 27.0999 9.85054 27.4999 10.0494C27.8999 10.2483 28.1999 10.6461 28.2999 11.0439C28.2999 11.0524 28.3065 11.0896 28.3179 11.153C28.4383 11.827 29.0882 15.463 27.8999 19.0989C28.1999 19.8945 28.2999 20.6901 28.2999 21.5851C28.2999 23.8723 27.2999 25.9607 25.6999 27.4523L29.2307 38.4878C28.4361 38.8997 27.6101 39.26 26.7573 39.5644L23.2999 28.944C22.2999 29.3418 21.2999 29.5407 20.2999 29.5407C19.1999 29.5407 18.1999 29.3418 17.2999 28.944L13.7825 39.7485C12.9095 39.4648 12.0629 39.123 11.2473 38.7276ZM25.6999 15.6184V13.6295C25.1999 14.0272 24.7999 14.5245 24.6999 14.8228C24.7834 14.8851 24.8625 14.943 24.9382 14.9984C25.2251 15.2085 25.4625 15.3823 25.6999 15.6184ZM20.1999 26.7562C23.0999 26.7562 25.3999 24.469 25.3999 21.5851C25.3999 18.7012 23.0999 16.4139 20.1999 16.4139C17.2999 16.4139 14.9999 18.7012 14.9999 21.5851C14.9999 24.469 17.2999 26.7562 20.1999 26.7562ZM15.7999 14.8228C15.5999 14.425 15.1999 14.0272 14.6999 13.6295C14.6999 14.2261 14.6999 14.9223 14.7999 15.6184C15.0999 15.32 15.3999 15.0217 15.7999 14.8228Z" fill="black"/>
</svg>
