<svg width="50" height="55" viewBox="0 0 35 40" fill="none" xmlns="http://www.w3.org/2000/svg">
<path d="M12.3272 22.8409C11.8935 22.6262 10.4608 22.0636 9.5855 21.6646C9.25906 21.5158 8.87345 21.6587 8.72388 21.9834C8.57497 22.3074 8.71738 22.6921 9.04447 22.8409C9.61217 23.0995 11.1626 23.7184 11.6665 23.9538C11.435 24.5086 11.3056 25.1152 11.3056 25.7522C11.3056 25.855 11.3173 25.9488 11.3238 26.0471C9.40812 26.1796 7.8533 27.7562 7.57563 29.7835L4.16737 29.7835C3.80776 29.7835 3.51709 30.0733 3.51709 30.4302C3.51709 30.7872 3.80776 31.0769 4.16737 31.0769L7.57563 31.0769C7.8533 33.1036 9.40812 34.6808 11.3232 34.8134C11.318 34.9045 11.3063 34.9918 11.3063 35.0863C11.3063 35.7297 11.4376 36.3434 11.675 36.9028C11.1717 37.1382 9.61477 38.0363 9.04447 38.2963C8.71803 38.445 8.57562 38.8298 8.72388 39.1538C8.87345 39.4784 9.25906 39.6213 9.5855 39.4726C10.4712 39.069 11.9084 38.2284 12.3428 38.0125C13.2103 39.0905 14.5427 39.7837 16.0371 39.7837C18.3131 39.7837 20.2424 38.1664 20.6723 36.0045L33.43 35.9631C33.7896 35.9631 34.0803 35.6734 34.0803 35.3165C34.0803 34.9595 33.7896 34.6698 33.43 34.6698L20.1013 34.7112C19.7586 34.7112 19.4745 34.9757 19.4524 35.3165C19.3366 37.0961 17.8364 38.491 16.0358 38.491C14.1448 38.491 12.6062 36.9642 12.6062 35.0876C12.6062 34.7991 12.6387 34.5398 12.7024 34.3174C12.7083 34.296 12.7037 34.2753 12.7076 34.254C12.7148 34.2158 12.7278 34.1796 12.7278 34.1395C12.7278 34.1169 12.7245 34.0936 12.7219 34.0703C12.7213 34.0658 12.7213 34.0606 12.7206 34.0561C12.7193 34.0464 12.72 34.0374 12.718 34.0277C12.7115 33.9902 12.6907 33.961 12.6784 33.9261C12.6641 33.8867 12.6543 33.8466 12.6329 33.8104C12.6095 33.7716 12.5782 33.7418 12.5477 33.7095C12.521 33.6804 12.4983 33.65 12.4664 33.6254C12.428 33.597 12.3845 33.5802 12.3409 33.5601C12.3116 33.5465 12.2882 33.5252 12.2563 33.5161C12.2505 33.5142 12.2453 33.5161 12.2394 33.5148C12.1991 33.5045 12.1562 33.5071 12.1133 33.5051C12.0684 33.5026 12.0242 33.4954 11.9813 33.5019C11.9754 33.5026 11.9702 33.5006 11.965 33.5013C11.8376 33.5233 11.7101 33.5342 11.5827 33.5342C10.063 33.5342 8.82677 32.142 8.82677 30.4302C8.82677 28.7191 10.063 27.3262 11.5827 27.3262C11.716 27.3262 11.8389 27.3372 11.9663 27.3592C11.9709 27.3598 11.9748 27.3579 11.9787 27.3585C12.0203 27.365 12.0639 27.3566 12.1068 27.3553C12.151 27.3533 12.1952 27.3572 12.2368 27.3462C12.2407 27.3449 12.2453 27.3462 12.2492 27.3456C12.2804 27.3372 12.3032 27.3165 12.3324 27.3042C12.378 27.2842 12.4248 27.2673 12.4644 27.2376C12.495 27.215 12.5158 27.1852 12.5418 27.1574C12.5737 27.1238 12.6075 27.0934 12.6322 27.0526C12.6524 27.019 12.6602 26.9815 12.6745 26.9446C12.6888 26.9065 12.7115 26.8729 12.7187 26.8315C12.7193 26.8263 12.7174 26.8211 12.718 26.816C12.7239 26.7778 12.7154 26.739 12.7148 26.6996C12.7128 26.6543 12.7174 26.6077 12.7063 26.5651C12.705 26.5599 12.707 26.5554 12.7057 26.5502C12.6387 26.3083 12.6068 26.0477 12.6068 25.7515C12.6068 25.0784 12.8104 24.455 13.1498 23.9253C13.1524 23.9195 13.1583 23.9156 13.1609 23.9092C13.1628 23.9046 13.1635 23.9021 13.1654 23.8975C13.778 22.9624 14.8341 22.3403 16.0371 22.3403C17.8377 22.3403 19.3379 23.7378 19.4537 25.522C19.455 25.542 19.4654 25.5575 19.4686 25.5769C19.4654 25.6041 19.4524 25.6287 19.4524 25.6571C19.4524 26.0141 19.743 26.3038 20.1026 26.3038L33.43 26.2624C33.7896 26.2624 34.0803 25.9727 34.0803 25.6157C34.0803 25.2588 33.7896 24.9691 33.43 24.9691L20.7015 25.0105C20.3439 22.7562 18.3735 21.0476 16.0358 21.0476C14.533 21.0476 13.1941 21.7506 12.3272 22.8409Z" fill="black"/>
<path d="M11.4844 8.82477L9.85848 8.54613L9.0575 7.25899C8.94598 7.07871 8.73202 6.9668 8.50026 6.9668C8.2685 6.9668 8.0549 7.07871 7.94302 7.25899L7.14203 8.54613L5.51609 8.82477C5.28869 8.8638 5.10306 9.00925 5.03114 9.20501C4.95958 9.40078 5.01334 9.61557 5.17208 9.76618L6.30363 10.8401L6.09984 12.2985C6.07115 12.5027 6.16959 12.7046 6.35739 12.8255C6.46819 12.8971 6.59969 12.9335 6.73191 12.9332C6.82346 12.9332 6.91536 12.9158 7.00182 12.88L8.50062 12.2576L10.0009 12.8803C10.2108 12.9674 10.4575 12.9464 10.6449 12.8255C10.8324 12.7046 10.9308 12.503 10.9021 12.2985L10.6983 10.8398L11.8284 9.76586C11.9868 9.61557 12.0402 9.40078 11.969 9.20501C11.8975 9.00957 11.7118 8.8638 11.4844 8.82477ZM9.56497 10.2612C9.43601 10.3838 9.37535 10.5505 9.39823 10.7169L9.49704 11.4232L8.77016 11.1217C8.68479 11.0862 8.59252 11.0685 8.50026 11.0685C8.40835 11.0685 8.31645 11.0862 8.23036 11.1217L7.50529 11.4226L7.6041 10.7166C7.62698 10.5502 7.56632 10.3835 7.43736 10.2606L6.88957 9.74102L7.67639 9.60622C7.86165 9.57429 8.02148 9.47141 8.11302 9.32434L8.50026 8.70158L8.88785 9.32434C8.97867 9.47108 9.13887 9.57429 9.32449 9.60622L10.1117 9.74102L9.56497 10.2612Z" fill="black"/>
<path d="M20.4105 8.13862L18.5511 7.81342L17.6363 6.31279C17.508 6.10277 17.2638 5.97217 16.9989 5.97217C16.734 5.97217 16.4898 6.10277 16.3619 6.31279L15.4468 7.81342L13.5894 8.13862C13.3299 8.18416 13.1173 8.35391 13.0359 8.58237C12.9537 8.81046 13.0151 9.06113 13.1957 9.2369L14.4876 10.4902L14.2546 12.1926C14.2222 12.4309 14.3352 12.6661 14.5494 12.8076C14.6761 12.8912 14.826 12.9333 14.9771 12.9333C15.0822 12.9333 15.1877 12.913 15.2856 12.8712L16.9989 12.1444L18.7143 12.8712C18.9543 12.9729 19.2362 12.9484 19.4505 12.8072C19.6648 12.6661 19.7777 12.4309 19.7453 12.1926L19.5124 10.4902L20.8042 9.2369C20.9852 9.0615 21.0463 8.81083 20.964 8.58237C20.8827 8.35391 20.6701 8.18416 20.4105 8.13862ZM18.216 9.81464C18.069 9.95767 17.9992 10.1523 18.0258 10.3465L18.1383 11.1707L17.307 10.8188C17.2094 10.7774 17.1044 10.7567 16.9989 10.7567C16.8935 10.7567 16.788 10.7774 16.69 10.8188L15.8616 11.1704L15.9737 10.3465C16.0007 10.1523 15.9305 9.95767 15.7835 9.81464L15.1578 9.20792L16.0563 9.05059C16.2685 9.01333 16.4508 8.89326 16.5554 8.72163L16.9985 7.99559L17.4412 8.72163C17.5458 8.89288 17.7285 9.01333 17.9403 9.05059L18.8409 9.20792L18.216 9.81464Z" fill="black"/>
<path d="M29.4843 8.13873L27.8583 7.81352L27.0573 6.31281C26.9451 6.10278 26.7315 5.97217 26.5001 5.97217C26.268 5.97217 26.0547 6.10278 25.9425 6.31281L25.1419 7.81352L23.5159 8.13873C23.2882 8.18428 23.1022 8.35404 23.031 8.58251C22.9598 8.81099 23.0132 9.06167 23.1716 9.23707L24.3031 10.4905L24.0997 12.1926C24.071 12.4308 24.1698 12.6661 24.3569 12.8076C24.4677 12.8912 24.5992 12.9333 24.731 12.9333C24.8229 12.9333 24.9152 12.913 25.0009 12.8712L26.4997 12.1448L27.9982 12.8712C28.2081 12.9729 28.4548 12.9484 28.6422 12.8076C28.8297 12.6668 28.9285 12.4312 28.9001 12.193L28.6985 10.4905L29.8286 9.2367C29.9866 9.06129 30.0404 8.81061 29.9688 8.58213C29.8973 8.35404 29.7117 8.18428 29.4843 8.13873ZM27.5648 9.81485C27.4359 9.9575 27.3752 10.1521 27.3981 10.346L27.4958 11.171L26.7696 10.8191C26.6843 10.7777 26.592 10.757 26.4997 10.757C26.4075 10.757 26.3152 10.7777 26.2298 10.8191L25.5048 11.1706L25.6032 10.3467C25.6265 10.1525 25.5654 9.9575 25.4365 9.81447L24.8887 9.20809L25.6759 9.05075C25.8611 9.01349 26.0213 8.89342 26.1125 8.72178L26.5001 7.9957L26.8873 8.72178C26.9789 8.89304 27.1387 9.01349 27.3243 9.05075L28.1115 9.20809L27.5648 9.81485Z" fill="black"/>
<path d="M18 21.8837V18.9004" stroke="black" stroke-width="2" stroke-linejoin="round"/>
<path d="M1 7C1 3.68629 3.68629 1 7 1H27C30.3137 1 33 3.68629 33 7V12.9001C33 16.2138 30.3137 18.9001 27 18.9001H7C3.68629 18.9001 1 16.2138 1 12.9001V7Z" stroke="black" stroke-width="2" stroke-linejoin="round"/>
<path d="M14 21.8837V18.9004" stroke="black" stroke-width="2" stroke-linejoin="round"/>
</svg>
