<svg width="150" height="140" viewBox="0 0 150 140" fill="none" xmlns="http://www.w3.org/2000/svg">
<path d="M133.333 140H58.3333C53.9131 140 49.6738 138.361 46.5482 135.444C43.4226 132.527 41.6667 128.57 41.6667 124.444V93.3333H58.3333V124.444H133.333V15.5556H58.3333V46.6667H41.6667V15.5556C41.6667 11.43 43.4226 7.47335 46.5482 4.55612C49.6738 1.63888 53.9131 0 58.3333 0H133.333C137.754 0 141.993 1.63888 145.118 4.55612C148.244 7.47335 150 11.43 150 15.5556V124.444C150 128.57 148.244 132.527 145.118 135.444C141.993 138.361 137.754 140 133.333 140ZM75 101.111V77.7778H0V62.2222H75V38.8889L116.667 70L75 101.111Z" fill="white"/>
</svg>
