<svg width="150" height="140" viewBox="0 0 150 140" fill="none" xmlns="http://www.w3.org/2000/svg">
<path d="M132.679 114.649C140.378 106.011 145.732 95.7698 148.29 84.7932C150.847 73.8165 150.532 62.427 147.371 51.5879C144.211 40.7488 138.297 30.7792 130.13 22.5223C121.964 14.2654 111.785 7.96421 100.455 4.15177C89.1253 0.339321 76.9774 -0.872226 65.0391 0.619615C53.1009 2.11146 41.7235 6.2628 31.8695 12.7225C22.0155 19.1821 13.9747 27.7601 8.42741 37.7306C2.88012 47.7012 -0.0105214 58.7711 2.87758e-05 70.0038C0.00407724 86.333 6.1745 102.139 17.4285 114.649L17.3213 114.734C17.6966 115.154 18.1255 115.514 18.5115 115.929C18.994 116.444 19.514 116.929 20.0125 117.429C21.5136 118.949 23.0576 120.408 24.6766 121.778C25.1698 122.198 25.6791 122.588 26.1777 122.988C27.8932 124.368 29.6569 125.678 31.485 126.898C31.7209 127.048 31.9353 127.243 32.1712 127.398V127.338C44.7272 135.578 59.7057 140 75.059 140C90.4123 140 105.391 135.578 117.947 127.338V127.398C118.183 127.243 118.392 127.048 118.633 126.898C120.456 125.673 122.225 124.368 123.94 122.988C124.439 122.588 124.948 122.193 125.441 121.778C127.06 120.403 128.604 118.949 130.105 117.429C130.604 116.929 131.119 116.444 131.607 115.929C131.987 115.514 132.421 115.154 132.797 114.729L132.679 114.649ZM75.0536 30.0081C79.825 30.0081 84.4892 31.3276 88.4564 33.7996C92.4237 36.2717 95.5157 39.7853 97.3416 43.8962C99.1676 48.0071 99.6453 52.5307 98.7145 56.8948C97.7836 61.2589 95.486 65.2676 92.1121 68.4139C88.7383 71.5603 84.4397 73.703 79.7601 74.571C75.0804 75.4391 70.2298 74.9936 65.8216 73.2908C61.4135 71.588 57.6458 68.7044 54.995 65.0047C52.3441 61.305 50.9293 56.9553 50.9293 52.5057C50.9293 46.539 53.4709 40.8166 57.9951 36.5975C62.5193 32.3784 68.6555 30.0081 75.0536 30.0081V30.0081ZM32.2034 114.649C32.2964 108.085 35.157 101.818 40.1664 97.2056C45.1757 92.593 51.931 90.0051 58.9707 90.0017H91.1366C98.1763 90.0051 104.932 92.593 109.941 97.2056C114.95 101.818 117.811 108.085 117.904 114.649C106.146 124.53 90.8806 129.998 75.0536 129.998C59.2267 129.998 43.9608 124.53 32.2034 114.649V114.649Z" fill="white"/>
</svg>
